<svg width="40" height="40" viewBox="0 0 40 40" fill="none" xmlns="http://www.w3.org/2000/svg">
<path d="M27.4 5.17004C24.3833 5.17004 21.6833 6.63671 20 8.88671C19.1402 7.73473 18.0237 6.79903 16.7392 6.15387C15.4547 5.50871 14.0374 5.17185 12.6 5.17004C7.48331 5.17004 3.33331 9.33671 3.33331 14.4867C3.33331 16.47 3.64998 18.3034 4.19998 20.0034C6.83331 28.3367 14.95 33.32 18.9666 34.6867C19.5333 34.8867 20.4666 34.8867 21.0333 34.6867C25.05 33.32 33.1666 28.3367 35.8 20.0034C36.35 18.3034 36.6666 16.47 36.6666 14.4867C36.6666 9.33671 32.5166 5.17004 27.4 5.17004Z" fill="url(#paint0_linear_11_141)"/>
<path d="M23.4285 19.9995V22.5709C23.4285 23.5181 22.6613 24.2852 21.7142 24.2852H18.2856C17.3385 24.2852 16.5713 23.5181 16.5713 22.5709V19.9995C16.5713 19.7638 16.7642 19.5709 16.9999 19.5709H17.8442C18.0799 19.5709 18.2728 19.7638 18.2728 19.9995V21.3452C18.2732 21.5728 18.3635 21.791 18.524 21.9523C18.6846 22.1137 18.9023 22.2051 19.1299 22.2067C19.2928 22.2067 19.4556 22.1595 19.597 22.0652L20.0042 21.7995L20.3813 22.0524C20.6428 22.2281 20.977 22.2495 21.2556 22.0995C21.5385 21.9495 21.7142 21.6624 21.7142 21.3409V19.9995C21.7142 19.7638 21.907 19.5709 22.1428 19.5709H22.9999C23.2356 19.5709 23.4285 19.7638 23.4285 19.9995ZM24.0713 17.8567V18.2852C24.0713 18.7567 23.8442 19.1424 23.2142 19.1424H16.7856C16.1299 19.1424 15.9285 18.7567 15.9285 18.2852V17.8567C15.9285 17.3852 16.1299 16.9995 16.7856 16.9995H23.2142C23.8442 16.9995 24.0713 17.3852 24.0713 17.8567Z" fill="white"/>
<path d="M19.8452 16.9999H17.4795C17.409 16.9235 17.371 16.8227 17.3734 16.7188C17.3758 16.6148 17.4185 16.5159 17.4924 16.4428L18.1009 15.8342C18.178 15.758 18.2819 15.7153 18.3902 15.7153C18.4985 15.7153 18.6025 15.758 18.6795 15.8342L19.8452 16.9999ZM22.5165 16.9999H20.1508L21.3165 15.8342C21.3935 15.758 21.4975 15.7153 21.6058 15.7153C21.7141 15.7153 21.8181 15.758 21.8951 15.8342L22.5037 16.4428C22.6579 16.5971 22.6622 16.8414 22.5165 16.9999ZM20.8447 19.5709C21.0804 19.5709 21.2732 19.7638 21.2732 19.9995V21.3409C21.2732 21.6838 20.8918 21.8895 20.6089 21.6966L20.2232 21.4395C20.1533 21.3934 20.0713 21.3688 19.9875 21.3688C19.9037 21.3688 19.8218 21.3934 19.7518 21.4395L19.3489 21.7052C19.0661 21.8938 18.6889 21.6881 18.6889 21.3495V19.9995C18.6889 19.7638 18.8818 19.5709 19.1175 19.5709H20.8447Z" fill="white"/>
<defs>
<linearGradient id="paint0_linear_11_141" x1="5.33331" y1="5.33345" x2="22.3333" y2="27.5001" gradientUnits="userSpaceOnUse">
<stop stop-color="#175CE1" stop-opacity="0.71"/>
<stop offset="1" stop-color="#A75FD2" stop-opacity="0.94"/>
</linearGradient>
</defs>
</svg>
